<?xml version="1.0" standalone="no"?>
<!DOCTYPE svg PUBLIC "-//W3C//DTD SVG 20010904//EN"
 "http://www.w3.org/TR/2001/REC-SVG-20010904/DTD/svg10.dtd">
<svg version="1.0" xmlns="http://www.w3.org/2000/svg"
 width="512.000000pt" height="512.000000pt" viewBox="0 0 512.000000 512.000000"
 preserveAspectRatio="xMidYMid meet">
<metadata>
Created by potrace 1.14, written by Peter Selinger 2001-2017
</metadata>
<g transform="translate(0.000000,512.000000) scale(0.100000,-0.100000)"
fill="#000000" stroke="none">
<path d="M2439 4636 c-2 -2 -22 -6 -44 -9 -408 -56 -773 -366 -900 -764 -41
-131 -53 -231 -55 -458 0 -115 -4 -212 -8 -215 -4 -3 -41 -14 -82 -24 -152
-37 -306 -124 -427 -243 -137 -135 -220 -292 -269 -508 -13 -60 -11 -286 3
-354 27 -121 44 -173 83 -252 126 -250 353 -432 621 -498 116 -29 114 -29 606
-30 l432 -1 3 -509 c3 -497 4 -510 24 -537 39 -53 71 -69 134 -69 63 0 95 16
134 69 20 27 21 40 24 537 l3 509 432 1 c237 1 443 2 457 4 395 31 740 323
839 710 21 83 23 103 26 228 2 115 -2 154 -30 277 -31 139 -143 324 -263 438
-126 119 -308 215 -452 238 -23 4 -43 12 -45 18 -2 6 -6 117 -8 246 -3 129 -7
246 -11 260 -6 28 -14 64 -20 95 -9 43 -50 153 -84 220 -157 314 -443 532
-791 604 -74 15 -321 28 -332 17z m315 -341 c262 -71 462 -251 555 -500 42
-112 50 -184 51 -488 1 -320 4 -343 61 -389 37 -30 48 -33 154 -42 142 -13
245 -54 354 -143 83 -67 140 -146 192 -268 56 -129 46 -353 -22 -501 -68 -149
-211 -276 -374 -332 l-80 -27 -463 -3 -463 -3 3 82 c3 91 -5 82 88 94 176 22
364 95 525 206 78 53 195 163 240 224 17 22 38 49 48 59 103 115 54 276 -88
292 -69 7 -109 -16 -168 -96 -149 -203 -362 -336 -587 -366 -25 -3 -48 -8 -52
-11 -4 -2 -9 369 -10 826 -3 820 -3 830 -24 857 -32 44 -68 66 -116 71 -58 7
-108 -15 -144 -63 l-29 -37 -3 -674 c-1 -370 -5 -673 -7 -673 -2 0 -35 20 -72
44 -82 52 -174 90 -268 109 -75 15 -426 23 -490 11 -50 -9 -111 -68 -120 -117
-16 -83 31 -167 103 -187 21 -5 119 -10 219 -10 250 -2 317 -19 431 -109 71
-56 128 -136 164 -228 26 -65 31 -96 36 -191 l5 -112 -444 1 c-399 0 -451 2
-516 19 -209 54 -352 181 -444 395 -33 76 -47 276 -25 364 68 282 286 473 566
496 108 9 128 15 161 42 56 47 58 62 60 390 1 208 5 320 14 365 68 321 308
562 630 631 87 19 266 15 349 -8z"/>
</g>
</svg>
